<svg width="32" height="32" viewBox="0 0 32 32" fill="none" xmlns="http://www.w3.org/2000/svg">
<path d="M13.7374 22.2023C9.95474 21.7436 7.29074 19.0223 7.29074 15.4983C7.29074 14.0663 7.80674 12.5183 8.66541 11.4876C8.29341 10.5423 8.35074 8.53564 8.78008 7.70497C9.92674 7.56231 11.4734 8.16364 12.3907 8.99431C13.4787 8.65031 14.6254 8.47964 16.0281 8.47964C17.4321 8.47964 18.5787 8.65031 19.6094 8.96631C20.4974 8.16364 22.0734 7.56231 23.2201 7.70497C23.6201 8.47964 23.6787 10.485 23.3054 11.4583C24.2227 12.5476 24.7094 14.009 24.7094 15.4983C24.7094 19.0223 22.0454 21.6863 18.2067 22.173C19.1801 22.8036 19.8387 24.1783 19.8387 25.7543V28.7343C19.8387 29.593 20.5547 30.081 21.4147 29.737C26.6001 27.7596 30.6681 22.5743 30.6681 16.157C30.6681 8.04897 24.0787 1.43164 15.9721 1.43164C7.86408 1.43164 1.33208 8.04897 1.33208 16.157C1.32463 19.1243 2.23068 22.022 3.92718 24.4566C5.62368 26.8911 8.0284 28.7445 10.8147 29.765C11.5881 30.0516 12.3334 29.5356 12.3334 28.7623V26.4703C11.8973 26.6531 11.4302 26.7504 10.9574 26.757C9.06674 26.757 7.94941 25.7263 7.14808 23.8063C6.83208 23.033 6.48808 22.5743 5.82941 22.489C5.48541 22.4596 5.37074 22.317 5.37074 22.145C5.37074 21.801 5.94408 21.5436 6.51741 21.5436C7.34808 21.5436 8.06408 22.0583 8.80941 23.1183C9.38274 23.949 9.98408 24.3223 10.7001 24.3223C11.4161 24.3223 11.8747 24.0636 12.5334 23.405C13.0201 22.9183 13.3934 22.489 13.7374 22.2023Z" fill="black"/>
</svg>
