<svg width="275" height="288" viewBox="0 0 275 288" fill="none" xmlns="http://www.w3.org/2000/svg">
  <path d="M164.763 38.1258C165.056 52.0159 174.849 63.8872 188.429 66.8172L267.106 83.7909C271.71 84.7841 274.996 88.8553 274.997 93.5652L274.999 122.248C275 128.576 269.196 133.314 262.996 132.046L211.207 121.46C204.794 120.149 198.872 125.25 199.218 131.787L206.942 277.471C207.245 283.193 202.687 288 196.956 288H165.5C159.977 288 155.5 283.523 155.5 278V230C155.5 221.716 148.784 215 140.5 215H134.5C126.216 215 119.5 221.716 119.5 230V278C119.5 283.523 115.023 288 109.5 288H78.0442C72.3134 288 67.7548 283.193 68.0582 277.471L75.782 131.787C76.1285 125.25 70.2061 120.149 63.7933 121.46L12.0037 132.046C5.8038 133.314 0.000472178 128.576 0.000976579 122.248L0.00326284 93.5652C0.00363826 88.8553 3.29043 84.7841 7.89437 83.7909L86.5705 66.8172C100.151 63.8872 109.944 52.0159 110.237 38.1258L110.836 9.78869C110.951 4.3494 115.393 0 120.834 0H154.166C159.607 0 164.049 4.3494 164.164 9.78868L164.763 38.1258Z" fill="#111111"/>
</svg>
