<svg width="1200" height="630" viewBox="0 0 1200 630" fill="none" xmlns="http://www.w3.org/2000/svg">
<g clip-path="url(#clip0_465_43)">
<path d="M1200 0H0V630H1200V0Z" fill="#171717"/>
<path d="M46.7757 493.882C46.8056 495.296 47.8027 496.505 49.1854 496.803L57.1961 498.531C57.6649 498.633 57.9994 499.047 57.9995 499.527L57.9997 502.447C57.9999 503.091 57.4089 503.574 56.7776 503.445L51.5046 502.367C50.8516 502.233 50.2487 502.753 50.2839 503.418L51.0703 518.252C51.1012 518.834 50.6371 519.324 50.0536 519.324H46.8508C46.2884 519.324 45.8326 518.868 45.8326 518.305V513.418C45.8326 512.575 45.1488 511.891 44.3053 511.891H43.6944C42.851 511.891 42.1672 512.575 42.1672 513.418V518.305C42.1672 518.868 41.7113 519.324 41.149 519.324H37.9462C37.3627 519.324 36.8986 518.834 36.9295 518.252L37.7159 503.418C37.7512 502.753 37.1481 502.233 36.4952 502.367L31.2221 503.445C30.5908 503.574 29.9999 503.091 30 502.447L30.0002 499.527C30.0003 499.047 30.3349 498.633 30.8037 498.531L38.8143 496.803C40.1971 496.505 41.1942 495.296 41.224 493.882L41.285 490.997C41.2967 490.443 41.749 490 42.303 490H45.6968C46.2508 490 46.703 490.443 46.7148 490.997L46.7757 493.882Z" fill="#FAFAFA"/>
<path d="M31.7363 561V541.271H34.9082L46.4473 557.869L43.1113 555.107H44.6016V541.271H48.1016V561H44.957L33.4043 544.361L36.7402 547.109H35.2363V561H31.7363ZM57.6582 561.287C56.2363 561.287 55.0013 560.986 53.9531 560.385C52.9049 559.774 52.0892 558.908 51.5059 557.787C50.9316 556.657 50.6445 555.312 50.6445 553.754V553.727C50.6445 552.177 50.9362 550.842 51.5195 549.721C52.1029 548.59 52.9186 547.725 53.9668 547.123C55.015 546.512 56.2409 546.207 57.6445 546.207C59.0573 546.207 60.2878 546.512 61.3359 547.123C62.3932 547.725 63.2135 548.586 63.7969 549.707C64.3802 550.828 64.6719 552.168 64.6719 553.727V553.754C64.6719 555.322 64.3802 556.671 63.7969 557.801C63.2227 558.922 62.4115 559.783 61.3633 560.385C60.3151 560.986 59.0801 561.287 57.6582 561.287ZM57.6719 558.539C58.3919 558.539 59.0163 558.352 59.5449 557.979C60.0736 557.605 60.4792 557.062 60.7617 556.352C61.0534 555.632 61.1992 554.766 61.1992 553.754V553.727C61.1992 552.724 61.0534 551.867 60.7617 551.156C60.4701 550.445 60.0553 549.903 59.5176 549.529C58.9889 549.156 58.3646 548.969 57.6445 548.969C56.9427 548.969 56.3229 549.156 55.7852 549.529C55.2565 549.903 54.8418 550.445 54.541 551.156C54.2493 551.867 54.1035 552.724 54.1035 553.727V553.754C54.1035 554.766 54.2493 555.632 54.541 556.352C54.8418 557.062 55.2565 557.605 55.7852 557.979C56.3229 558.352 56.9518 558.539 57.6719 558.539ZM66.8594 561V546.508H70.25V548.832H70.332C70.6328 548.039 71.1387 547.406 71.8496 546.932C72.5605 546.449 73.3945 546.207 74.3516 546.207C75.026 546.207 75.6322 546.326 76.1699 546.562C76.7077 546.79 77.1634 547.123 77.5371 547.561C77.9199 547.989 78.1979 548.513 78.3711 549.133H78.4395C78.6764 548.531 79.0137 548.016 79.4512 547.588C79.8978 547.15 80.4173 546.813 81.0098 546.576C81.6113 546.33 82.2585 546.207 82.9512 546.207C83.9082 546.207 84.7376 546.412 85.4395 546.822C86.1504 547.223 86.7018 547.788 87.0938 548.518C87.4948 549.238 87.6953 550.085 87.6953 551.061V561H84.291V551.895C84.291 551.293 84.1908 550.783 83.9902 550.363C83.7897 549.944 83.498 549.625 83.1152 549.406C82.7324 549.188 82.2585 549.078 81.6934 549.078C81.1465 549.078 80.6634 549.206 80.2441 549.461C79.834 549.707 79.5104 550.053 79.2734 550.5C79.0456 550.947 78.9316 551.462 78.9316 552.045V561H75.623V551.717C75.623 551.17 75.5182 550.701 75.3086 550.309C75.099 549.917 74.8027 549.616 74.4199 549.406C74.0371 549.188 73.5814 549.078 73.0527 549.078C72.5059 549.078 72.0228 549.21 71.6035 549.475C71.1842 549.739 70.8516 550.099 70.6055 550.555C70.3685 551.01 70.25 551.535 70.25 552.127V561H66.8594ZM96.8418 561.287C95.4199 561.287 94.1849 560.986 93.1367 560.385C92.0885 559.774 91.2728 558.908 90.6895 557.787C90.1152 556.657 89.8281 555.312 89.8281 553.754V553.727C89.8281 552.177 90.1198 550.842 90.7031 549.721C91.2865 548.59 92.1022 547.725 93.1504 547.123C94.1986 546.512 95.4245 546.207 96.8281 546.207C98.2409 546.207 99.4714 546.512 100.52 547.123C101.577 547.725 102.397 548.586 102.98 549.707C103.564 550.828 103.855 552.168 103.855 553.727V553.754C103.855 555.322 103.564 556.671 102.98 557.801C102.406 558.922 101.595 559.783 100.547 560.385C99.4987 560.986 98.2637 561.287 96.8418 561.287ZM96.8555 558.539C97.5755 558.539 98.1999 558.352 98.7285 557.979C99.2572 557.605 99.6628 557.062 99.9453 556.352C100.237 555.632 100.383 554.766 100.383 553.754V553.727C100.383 552.724 100.237 551.867 99.9453 551.156C99.6536 550.445 99.2389 549.903 98.7012 549.529C98.1725 549.156 97.5482 548.969 96.8281 548.969C96.1263 548.969 95.5065 549.156 94.9688 549.529C94.4401 549.903 94.0254 550.445 93.7246 551.156C93.4329 551.867 93.2871 552.724 93.2871 553.727V553.754C93.2871 554.766 93.4329 555.632 93.7246 556.352C94.0254 557.062 94.4401 557.605 94.9688 557.979C95.5065 558.352 96.1354 558.539 96.8555 558.539Z" fill="#FAFAFA"/>
<path d="M30.7727 578.614V577.364H39.5V578.614H35.8409V589H34.4318V578.614H30.7727ZM42.8338 583.75V589H41.4929V577.364H42.8338V581.636H42.9474C43.152 581.186 43.4588 580.828 43.8679 580.562C44.2808 580.294 44.83 580.159 45.5156 580.159C46.1103 580.159 46.6312 580.278 47.0781 580.517C47.5251 580.752 47.8717 581.114 48.1179 581.602C48.3679 582.087 48.4929 582.705 48.4929 583.455V589H47.152V583.545C47.152 582.852 46.9721 582.316 46.6122 581.938C46.2562 581.555 45.7618 581.364 45.1293 581.364C44.6899 581.364 44.2959 581.456 43.9474 581.642C43.6027 581.828 43.33 582.098 43.1293 582.455C42.9323 582.811 42.8338 583.242 42.8338 583.75ZM54.6051 589.182C53.7642 589.182 53.0388 588.996 52.429 588.625C51.8229 588.25 51.3551 587.727 51.0256 587.057C50.6998 586.383 50.5369 585.598 50.5369 584.705C50.5369 583.811 50.6998 583.023 51.0256 582.341C51.3551 581.655 51.8134 581.121 52.4006 580.739C52.9915 580.352 53.6809 580.159 54.4688 580.159C54.9233 580.159 55.3722 580.235 55.8153 580.386C56.2585 580.538 56.6619 580.784 57.0256 581.125C57.3892 581.462 57.679 581.909 57.8949 582.466C58.1108 583.023 58.2188 583.708 58.2188 584.523V585.091H51.4915V583.932H56.8551C56.8551 583.439 56.7566 583 56.5597 582.614C56.3665 582.227 56.09 581.922 55.7301 581.699C55.3741 581.475 54.9536 581.364 54.4688 581.364C53.9347 581.364 53.4725 581.496 53.0824 581.761C52.696 582.023 52.3987 582.364 52.1903 582.784C51.982 583.205 51.8778 583.655 51.8778 584.136V584.909C51.8778 585.568 51.9915 586.127 52.2188 586.585C52.4498 587.04 52.7699 587.386 53.179 587.625C53.5881 587.86 54.0634 587.977 54.6051 587.977C54.9574 587.977 55.2756 587.928 55.5597 587.83C55.8475 587.727 56.0956 587.576 56.304 587.375C56.5123 587.17 56.6733 586.917 56.7869 586.614L58.0824 586.977C57.946 587.417 57.7169 587.803 57.3949 588.136C57.0729 588.466 56.6752 588.723 56.2017 588.909C55.7282 589.091 55.196 589.182 54.6051 589.182ZM68.304 589.182C67.5161 589.182 66.8248 588.994 66.2301 588.619C65.6392 588.244 65.1771 587.72 64.8438 587.045C64.5142 586.371 64.3494 585.583 64.3494 584.682C64.3494 583.773 64.5142 582.979 64.8438 582.301C65.1771 581.623 65.6392 581.097 66.2301 580.722C66.8248 580.347 67.5161 580.159 68.304 580.159C69.0919 580.159 69.7813 580.347 70.3722 580.722C70.9669 581.097 71.429 581.623 71.7585 582.301C72.0919 582.979 72.2585 583.773 72.2585 584.682C72.2585 585.583 72.0919 586.371 71.7585 587.045C71.429 587.72 70.9669 588.244 70.3722 588.619C69.7813 588.994 69.0919 589.182 68.304 589.182ZM68.304 587.977C68.9025 587.977 69.3949 587.824 69.7812 587.517C70.1676 587.21 70.4536 586.807 70.6392 586.307C70.8248 585.807 70.9176 585.265 70.9176 584.682C70.9176 584.098 70.8248 583.555 70.6392 583.051C70.4536 582.547 70.1676 582.14 69.7812 581.83C69.3949 581.519 68.9025 581.364 68.304 581.364C67.7055 581.364 67.2131 581.519 66.8267 581.83C66.4403 582.14 66.1544 582.547 65.9688 583.051C65.7831 583.555 65.6903 584.098 65.6903 584.682C65.6903 585.265 65.7831 585.807 65.9688 586.307C66.1544 586.807 66.4403 587.21 66.8267 587.517C67.2131 587.824 67.7055 587.977 68.304 587.977ZM74.3054 592.273V580.273H75.6009V581.659H75.7599C75.8584 581.508 75.9948 581.314 76.169 581.08C76.3471 580.841 76.6009 580.629 76.9304 580.443C77.2637 580.254 77.7145 580.159 78.2827 580.159C79.0175 580.159 79.6652 580.343 80.2259 580.71C80.7865 581.078 81.224 581.598 81.5384 582.273C81.8527 582.947 82.0099 583.742 82.0099 584.659C82.0099 585.583 81.8527 586.384 81.5384 587.062C81.224 587.737 80.7884 588.259 80.2315 588.631C79.6747 588.998 79.0327 589.182 78.3054 589.182C77.7448 589.182 77.2959 589.089 76.9588 588.903C76.6217 588.714 76.3622 588.5 76.1804 588.261C75.9986 588.019 75.8584 587.818 75.7599 587.659H75.6463V592.273H74.3054ZM75.6236 584.636C75.6236 585.295 75.7202 585.877 75.9134 586.381C76.1065 586.881 76.3887 587.273 76.7599 587.557C77.1312 587.837 77.5857 587.977 78.1236 587.977C78.6842 587.977 79.152 587.83 79.527 587.534C79.9058 587.235 80.1899 586.833 80.3793 586.33C80.5724 585.822 80.669 585.258 80.669 584.636C80.669 584.023 80.5743 583.47 80.3849 582.977C80.1993 582.481 79.9171 582.089 79.5384 581.801C79.1634 581.509 78.6918 581.364 78.1236 581.364C77.5781 581.364 77.1198 581.502 76.7486 581.778C76.3774 582.051 76.0971 582.434 75.9077 582.926C75.7183 583.415 75.6236 583.985 75.6236 584.636ZM87.7145 589.182C86.8736 589.182 86.1482 588.996 85.5384 588.625C84.9323 588.25 84.4645 587.727 84.1349 587.057C83.8092 586.383 83.6463 585.598 83.6463 584.705C83.6463 583.811 83.8092 583.023 84.1349 582.341C84.4645 581.655 84.9228 581.121 85.5099 580.739C86.1009 580.352 86.7902 580.159 87.5781 580.159C88.0327 580.159 88.4815 580.235 88.9247 580.386C89.3679 580.538 89.7713 580.784 90.1349 581.125C90.4986 581.462 90.7884 581.909 91.0043 582.466C91.2202 583.023 91.3281 583.708 91.3281 584.523V585.091H84.6009V583.932H89.9645C89.9645 583.439 89.866 583 89.669 582.614C89.4759 582.227 89.1993 581.922 88.8395 581.699C88.4834 581.475 88.063 581.364 87.5781 581.364C87.044 581.364 86.5819 581.496 86.1918 581.761C85.8054 582.023 85.508 582.364 85.2997 582.784C85.0914 583.205 84.9872 583.655 84.9872 584.136V584.909C84.9872 585.568 85.1009 586.127 85.3281 586.585C85.5592 587.04 85.8793 587.386 86.2884 587.625C86.6974 587.86 87.1728 587.977 87.7145 587.977C88.0668 587.977 88.3849 587.928 88.669 587.83C88.9569 587.727 89.205 587.576 89.4134 587.375C89.6217 587.17 89.7827 586.917 89.8963 586.614L91.1918 586.977C91.0554 587.417 90.8262 587.803 90.5043 588.136C90.1823 588.466 89.7846 588.723 89.3111 588.909C88.8376 589.091 88.3054 589.182 87.7145 589.182ZM94.7088 583.75V589H93.3679V580.273H94.6634V581.636H94.777C94.9815 581.193 95.2921 580.837 95.7088 580.568C96.1255 580.295 96.6634 580.159 97.3224 580.159C97.9134 580.159 98.4304 580.28 98.8736 580.523C99.3168 580.761 99.6615 581.125 99.9077 581.614C100.154 582.098 100.277 582.712 100.277 583.455V589H98.9361V583.545C98.9361 582.86 98.758 582.326 98.402 581.943C98.0459 581.557 97.5573 581.364 96.9361 581.364C96.508 581.364 96.1255 581.456 95.7884 581.642C95.455 581.828 95.1918 582.098 94.9986 582.455C94.8054 582.811 94.7088 583.242 94.7088 583.75ZM107.727 583.386V584.636H102.636V583.386H107.727ZM116.268 582.227L115.064 582.568C114.988 582.367 114.876 582.172 114.729 581.983C114.585 581.79 114.388 581.631 114.138 581.506C113.888 581.381 113.568 581.318 113.178 581.318C112.643 581.318 112.198 581.441 111.842 581.688C111.49 581.93 111.314 582.239 111.314 582.614C111.314 582.947 111.435 583.21 111.678 583.403C111.92 583.597 112.299 583.758 112.814 583.886L114.109 584.205C114.89 584.394 115.471 584.684 115.854 585.074C116.236 585.46 116.428 585.958 116.428 586.568C116.428 587.068 116.284 587.515 115.996 587.909C115.712 588.303 115.314 588.614 114.803 588.841C114.291 589.068 113.696 589.182 113.018 589.182C112.128 589.182 111.392 588.989 110.808 588.602C110.225 588.216 109.856 587.652 109.7 586.909L110.973 586.591C111.094 587.061 111.323 587.413 111.661 587.648C112.001 587.883 112.446 588 112.996 588C113.621 588 114.117 587.867 114.484 587.602C114.856 587.333 115.041 587.011 115.041 586.636C115.041 586.333 114.935 586.08 114.723 585.875C114.511 585.667 114.185 585.511 113.746 585.409L112.291 585.068C111.492 584.879 110.905 584.585 110.53 584.188C110.159 583.786 109.973 583.284 109.973 582.682C109.973 582.189 110.111 581.754 110.388 581.375C110.668 580.996 111.049 580.699 111.53 580.483C112.015 580.267 112.564 580.159 113.178 580.159C114.041 580.159 114.719 580.348 115.212 580.727C115.708 581.106 116.06 581.606 116.268 582.227ZM121.991 589.182C121.204 589.182 120.512 588.994 119.918 588.619C119.327 588.244 118.865 587.72 118.531 587.045C118.202 586.371 118.037 585.583 118.037 584.682C118.037 583.773 118.202 582.979 118.531 582.301C118.865 581.623 119.327 581.097 119.918 580.722C120.512 580.347 121.204 580.159 121.991 580.159C122.779 580.159 123.469 580.347 124.06 580.722C124.654 581.097 125.116 581.623 125.446 582.301C125.779 582.979 125.946 583.773 125.946 584.682C125.946 585.583 125.779 586.371 125.446 587.045C125.116 587.72 124.654 588.244 124.06 588.619C123.469 588.994 122.779 589.182 121.991 589.182ZM121.991 587.977C122.59 587.977 123.082 587.824 123.469 587.517C123.855 587.21 124.141 586.807 124.327 586.307C124.512 585.807 124.605 585.265 124.605 584.682C124.605 584.098 124.512 583.555 124.327 583.051C124.141 582.547 123.855 582.14 123.469 581.83C123.082 581.519 122.59 581.364 121.991 581.364C121.393 581.364 120.901 581.519 120.514 581.83C120.128 582.14 119.842 582.547 119.656 583.051C119.471 583.555 119.378 584.098 119.378 584.682C119.378 585.265 119.471 585.807 119.656 586.307C119.842 586.807 120.128 587.21 120.514 587.517C120.901 587.824 121.393 587.977 121.991 587.977ZM133.493 585.432V580.273H134.834V589H133.493V587.523H133.402C133.197 587.966 132.879 588.343 132.447 588.653C132.016 588.96 131.47 589.114 130.811 589.114C130.266 589.114 129.781 588.994 129.357 588.756C128.932 588.513 128.599 588.15 128.357 587.665C128.114 587.176 127.993 586.561 127.993 585.818V580.273H129.334V585.727C129.334 586.364 129.512 586.871 129.868 587.25C130.228 587.629 130.686 587.818 131.243 587.818C131.576 587.818 131.915 587.733 132.26 587.562C132.608 587.392 132.9 587.131 133.135 586.778C133.374 586.426 133.493 585.977 133.493 585.432ZM137.29 589V580.273H138.585V581.591H138.676C138.835 581.159 139.123 580.809 139.54 580.54C139.956 580.271 140.426 580.136 140.949 580.136C141.047 580.136 141.17 580.138 141.318 580.142C141.466 580.146 141.578 580.152 141.653 580.159V581.523C141.608 581.511 141.504 581.494 141.341 581.472C141.182 581.445 141.013 581.432 140.835 581.432C140.411 581.432 140.032 581.521 139.699 581.699C139.369 581.873 139.108 582.116 138.915 582.426C138.725 582.733 138.631 583.083 138.631 583.477V589H137.29ZM146.523 589.182C145.705 589.182 145 588.989 144.409 588.602C143.818 588.216 143.364 587.684 143.045 587.006C142.727 586.328 142.568 585.553 142.568 584.682C142.568 583.795 142.731 583.013 143.057 582.335C143.386 581.653 143.845 581.121 144.432 580.739C145.023 580.352 145.712 580.159 146.5 580.159C147.114 580.159 147.667 580.273 148.159 580.5C148.652 580.727 149.055 581.045 149.369 581.455C149.684 581.864 149.879 582.341 149.955 582.886H148.614C148.511 582.489 148.284 582.136 147.932 581.83C147.583 581.519 147.114 581.364 146.523 581.364C146 581.364 145.542 581.5 145.148 581.773C144.758 582.042 144.453 582.422 144.233 582.915C144.017 583.403 143.909 583.977 143.909 584.636C143.909 585.311 144.015 585.898 144.227 586.398C144.443 586.898 144.746 587.286 145.136 587.562C145.53 587.839 145.992 587.977 146.523 587.977C146.871 587.977 147.188 587.917 147.472 587.795C147.756 587.674 147.996 587.5 148.193 587.273C148.39 587.045 148.53 586.773 148.614 586.455H149.955C149.879 586.97 149.691 587.434 149.392 587.847C149.097 588.256 148.705 588.581 148.216 588.824C147.731 589.062 147.167 589.182 146.523 589.182ZM155.574 589.182C154.733 589.182 154.008 588.996 153.398 588.625C152.792 588.25 152.324 587.727 151.994 587.057C151.669 586.383 151.506 585.598 151.506 584.705C151.506 583.811 151.669 583.023 151.994 582.341C152.324 581.655 152.782 581.121 153.369 580.739C153.96 580.352 154.65 580.159 155.438 580.159C155.892 580.159 156.341 580.235 156.784 580.386C157.227 580.538 157.631 580.784 157.994 581.125C158.358 581.462 158.648 581.909 158.864 582.466C159.08 583.023 159.188 583.708 159.188 584.523V585.091H152.46V583.932H157.824C157.824 583.439 157.725 583 157.528 582.614C157.335 582.227 157.059 581.922 156.699 581.699C156.343 581.475 155.922 581.364 155.438 581.364C154.903 581.364 154.441 581.496 154.051 581.761C153.665 582.023 153.367 582.364 153.159 582.784C152.951 583.205 152.847 583.655 152.847 584.136V584.909C152.847 585.568 152.96 586.127 153.188 586.585C153.419 587.04 153.739 587.386 154.148 587.625C154.557 587.86 155.032 587.977 155.574 587.977C155.926 587.977 156.244 587.928 156.528 587.83C156.816 587.727 157.064 587.576 157.273 587.375C157.481 587.17 157.642 586.917 157.756 586.614L159.051 586.977C158.915 587.417 158.686 587.803 158.364 588.136C158.042 588.466 157.644 588.723 157.17 588.909C156.697 589.091 156.165 589.182 155.574 589.182ZM165.727 592.273V580.273H167.023V581.659H167.182C167.28 581.508 167.417 581.314 167.591 581.08C167.769 580.841 168.023 580.629 168.352 580.443C168.686 580.254 169.136 580.159 169.705 580.159C170.439 580.159 171.087 580.343 171.648 580.71C172.208 581.078 172.646 581.598 172.96 582.273C173.275 582.947 173.432 583.742 173.432 584.659C173.432 585.583 173.275 586.384 172.96 587.062C172.646 587.737 172.21 588.259 171.653 588.631C171.097 588.998 170.455 589.182 169.727 589.182C169.167 589.182 168.718 589.089 168.381 588.903C168.044 588.714 167.784 588.5 167.602 588.261C167.42 588.019 167.28 587.818 167.182 587.659H167.068V592.273H165.727ZM167.045 584.636C167.045 585.295 167.142 585.877 167.335 586.381C167.528 586.881 167.811 587.273 168.182 587.557C168.553 587.837 169.008 587.977 169.545 587.977C170.106 587.977 170.574 587.83 170.949 587.534C171.328 587.235 171.612 586.833 171.801 586.33C171.994 585.822 172.091 585.258 172.091 584.636C172.091 584.023 171.996 583.47 171.807 582.977C171.621 582.481 171.339 582.089 170.96 581.801C170.585 581.509 170.114 581.364 169.545 581.364C169 581.364 168.542 581.502 168.17 581.778C167.799 582.051 167.519 582.434 167.33 582.926C167.14 583.415 167.045 583.985 167.045 584.636ZM175.477 589V580.273H176.773V581.591H176.864C177.023 581.159 177.311 580.809 177.727 580.54C178.144 580.271 178.614 580.136 179.136 580.136C179.235 580.136 179.358 580.138 179.506 580.142C179.653 580.146 179.765 580.152 179.841 580.159V581.523C179.795 581.511 179.691 581.494 179.528 581.472C179.369 581.445 179.201 581.432 179.023 581.432C178.598 581.432 178.22 581.521 177.886 581.699C177.557 581.873 177.295 582.116 177.102 582.426C176.913 582.733 176.818 583.083 176.818 583.477V589H175.477ZM184.71 589.182C183.922 589.182 183.231 588.994 182.636 588.619C182.045 588.244 181.583 587.72 181.25 587.045C180.92 586.371 180.756 585.583 180.756 584.682C180.756 583.773 180.92 582.979 181.25 582.301C181.583 581.623 182.045 581.097 182.636 580.722C183.231 580.347 183.922 580.159 184.71 580.159C185.498 580.159 186.188 580.347 186.778 580.722C187.373 581.097 187.835 581.623 188.165 582.301C188.498 582.979 188.665 583.773 188.665 584.682C188.665 585.583 188.498 586.371 188.165 587.045C187.835 587.72 187.373 588.244 186.778 588.619C186.188 588.994 185.498 589.182 184.71 589.182ZM184.71 587.977C185.309 587.977 185.801 587.824 186.188 587.517C186.574 587.21 186.86 586.807 187.045 586.307C187.231 585.807 187.324 585.265 187.324 584.682C187.324 584.098 187.231 583.555 187.045 583.051C186.86 582.547 186.574 582.14 186.188 581.83C185.801 581.519 185.309 581.364 184.71 581.364C184.112 581.364 183.619 581.519 183.233 581.83C182.847 582.14 182.561 582.547 182.375 583.051C182.189 583.555 182.097 584.098 182.097 584.682C182.097 585.265 182.189 585.807 182.375 586.307C182.561 586.807 182.847 587.21 183.233 587.517C183.619 587.824 184.112 587.977 184.71 587.977ZM194.598 580.273V581.409H189.893V580.273H194.598ZM191.303 589V579.068C191.303 578.568 191.42 578.152 191.655 577.818C191.89 577.485 192.195 577.235 192.57 577.068C192.945 576.902 193.34 576.818 193.757 576.818C194.087 576.818 194.356 576.845 194.564 576.898C194.772 576.951 194.928 577 195.03 577.045L194.643 578.205C194.575 578.182 194.481 578.153 194.359 578.119C194.242 578.085 194.087 578.068 193.893 578.068C193.45 578.068 193.13 578.18 192.933 578.403C192.74 578.627 192.643 578.955 192.643 579.386V589H191.303ZM196.477 589V580.273H197.818V589H196.477ZM197.159 578.818C196.898 578.818 196.672 578.729 196.483 578.551C196.297 578.373 196.205 578.159 196.205 577.909C196.205 577.659 196.297 577.445 196.483 577.267C196.672 577.089 196.898 577 197.159 577C197.42 577 197.644 577.089 197.83 577.267C198.019 577.445 198.114 577.659 198.114 577.909C198.114 578.159 198.019 578.373 197.83 578.551C197.644 578.729 197.42 578.818 197.159 578.818ZM201.615 577.364V589H200.274V577.364H201.615ZM207.73 589.182C206.889 589.182 206.164 588.996 205.554 588.625C204.948 588.25 204.48 587.727 204.151 587.057C203.825 586.383 203.662 585.598 203.662 584.705C203.662 583.811 203.825 583.023 204.151 582.341C204.48 581.655 204.938 581.121 205.526 580.739C206.116 580.352 206.806 580.159 207.594 580.159C208.048 580.159 208.497 580.235 208.94 580.386C209.384 580.538 209.787 580.784 210.151 581.125C210.514 581.462 210.804 581.909 211.02 582.466C211.236 583.023 211.344 583.708 211.344 584.523V585.091H204.616V583.932H209.98C209.98 583.439 209.882 583 209.685 582.614C209.491 582.227 209.215 581.922 208.855 581.699C208.499 581.475 208.079 581.364 207.594 581.364C207.06 581.364 206.598 581.496 206.207 581.761C205.821 582.023 205.524 582.364 205.315 582.784C205.107 583.205 205.003 583.655 205.003 584.136V584.909C205.003 585.568 205.116 586.127 205.344 586.585C205.575 587.04 205.895 587.386 206.304 587.625C206.713 587.86 207.188 587.977 207.73 587.977C208.082 587.977 208.401 587.928 208.685 587.83C208.973 587.727 209.221 587.576 209.429 587.375C209.637 587.17 209.798 586.917 209.912 586.614L211.207 586.977C211.071 587.417 210.842 587.803 210.52 588.136C210.198 588.466 209.8 588.723 209.327 588.909C208.853 589.091 208.321 589.182 207.73 589.182ZM217.884 592.273V580.273H219.179V581.659H219.338C219.437 581.508 219.573 581.314 219.747 581.08C219.925 580.841 220.179 580.629 220.509 580.443C220.842 580.254 221.293 580.159 221.861 580.159C222.596 580.159 223.243 580.343 223.804 580.71C224.365 581.078 224.802 581.598 225.116 582.273C225.431 582.947 225.588 583.742 225.588 584.659C225.588 585.583 225.431 586.384 225.116 587.062C224.802 587.737 224.366 588.259 223.81 588.631C223.253 588.998 222.611 589.182 221.884 589.182C221.323 589.182 220.874 589.089 220.537 588.903C220.2 588.714 219.94 588.5 219.759 588.261C219.577 588.019 219.437 587.818 219.338 587.659H219.224V592.273H217.884ZM219.202 584.636C219.202 585.295 219.298 585.877 219.491 586.381C219.685 586.881 219.967 587.273 220.338 587.557C220.709 587.837 221.164 587.977 221.702 587.977C222.262 587.977 222.73 587.83 223.105 587.534C223.484 587.235 223.768 586.833 223.957 586.33C224.151 585.822 224.247 585.258 224.247 584.636C224.247 584.023 224.152 583.47 223.963 582.977C223.777 582.481 223.495 582.089 223.116 581.801C222.741 581.509 222.27 581.364 221.702 581.364C221.156 581.364 220.698 581.502 220.327 581.778C219.955 582.051 219.675 582.434 219.486 582.926C219.296 583.415 219.202 583.985 219.202 584.636ZM230.202 589.205C229.649 589.205 229.147 589.1 228.696 588.892C228.245 588.68 227.887 588.375 227.622 587.977C227.357 587.576 227.224 587.091 227.224 586.523C227.224 586.023 227.323 585.617 227.52 585.307C227.717 584.992 227.98 584.746 228.31 584.568C228.639 584.39 229.003 584.258 229.401 584.17C229.802 584.08 230.205 584.008 230.611 583.955C231.141 583.886 231.571 583.835 231.901 583.801C232.234 583.763 232.476 583.701 232.628 583.614C232.783 583.527 232.861 583.375 232.861 583.159V583.114C232.861 582.553 232.707 582.117 232.401 581.807C232.098 581.496 231.637 581.341 231.02 581.341C230.38 581.341 229.878 581.481 229.514 581.761C229.151 582.042 228.895 582.341 228.747 582.659L227.474 582.205C227.702 581.674 228.005 581.261 228.384 580.966C228.766 580.667 229.183 580.458 229.634 580.341C230.088 580.22 230.535 580.159 230.974 580.159C231.255 580.159 231.577 580.193 231.94 580.261C232.308 580.326 232.662 580.46 233.003 580.665C233.348 580.869 233.634 581.178 233.861 581.591C234.088 582.004 234.202 582.557 234.202 583.25V589H232.861V587.818H232.793C232.702 588.008 232.55 588.21 232.338 588.426C232.126 588.642 231.844 588.826 231.491 588.977C231.139 589.129 230.709 589.205 230.202 589.205ZM230.406 588C230.937 588 231.384 587.896 231.747 587.688C232.115 587.479 232.391 587.21 232.577 586.881C232.766 586.551 232.861 586.205 232.861 585.841V584.614C232.804 584.682 232.679 584.744 232.486 584.801C232.296 584.854 232.077 584.902 231.827 584.943C231.58 584.981 231.34 585.015 231.105 585.045C230.874 585.072 230.687 585.095 230.543 585.114C230.194 585.159 229.868 585.233 229.565 585.335C229.266 585.434 229.024 585.583 228.838 585.784C228.656 585.981 228.565 586.25 228.565 586.591C228.565 587.057 228.738 587.409 229.082 587.648C229.431 587.883 229.872 588 230.406 588ZM240.172 592.455C239.524 592.455 238.967 592.371 238.501 592.205C238.036 592.042 237.647 591.826 237.337 591.557C237.03 591.292 236.786 591.008 236.604 590.705L237.672 589.955C237.793 590.114 237.946 590.295 238.132 590.5C238.318 590.708 238.571 590.888 238.893 591.04C239.219 591.195 239.645 591.273 240.172 591.273C240.876 591.273 241.458 591.102 241.916 590.761C242.375 590.42 242.604 589.886 242.604 589.159V587.386H242.49C242.392 587.545 242.251 587.742 242.07 587.977C241.892 588.208 241.634 588.415 241.297 588.597C240.964 588.775 240.513 588.864 239.945 588.864C239.24 588.864 238.607 588.697 238.047 588.364C237.49 588.03 237.049 587.545 236.723 586.909C236.401 586.273 236.24 585.5 236.24 584.591C236.24 583.697 236.397 582.919 236.712 582.256C237.026 581.589 237.464 581.074 238.024 580.71C238.585 580.343 239.232 580.159 239.967 580.159C240.536 580.159 240.986 580.254 241.32 580.443C241.657 580.629 241.914 580.841 242.092 581.08C242.274 581.314 242.414 581.508 242.513 581.659H242.649V580.273H243.945V589.25C243.945 590 243.774 590.61 243.433 591.08C243.096 591.553 242.642 591.9 242.07 592.119C241.501 592.343 240.869 592.455 240.172 592.455ZM240.126 587.659C240.664 587.659 241.119 587.536 241.49 587.29C241.861 587.044 242.143 586.689 242.337 586.227C242.53 585.765 242.626 585.212 242.626 584.568C242.626 583.939 242.532 583.384 242.342 582.903C242.153 582.422 241.873 582.045 241.501 581.773C241.13 581.5 240.672 581.364 240.126 581.364C239.558 581.364 239.085 581.508 238.706 581.795C238.331 582.083 238.049 582.47 237.859 582.955C237.674 583.439 237.581 583.977 237.581 584.568C237.581 585.174 237.676 585.71 237.865 586.176C238.058 586.638 238.342 587.002 238.717 587.267C239.096 587.528 239.566 587.659 240.126 587.659ZM250.058 589.182C249.217 589.182 248.492 588.996 247.882 588.625C247.276 588.25 246.808 587.727 246.479 587.057C246.153 586.383 245.99 585.598 245.99 584.705C245.99 583.811 246.153 583.023 246.479 582.341C246.808 581.655 247.267 581.121 247.854 580.739C248.445 580.352 249.134 580.159 249.922 580.159C250.376 580.159 250.825 580.235 251.268 580.386C251.712 580.538 252.115 580.784 252.479 581.125C252.842 581.462 253.132 581.909 253.348 582.466C253.564 583.023 253.672 583.708 253.672 584.523V585.091H246.945V583.932H252.308C252.308 583.439 252.21 583 252.013 582.614C251.82 582.227 251.543 581.922 251.183 581.699C250.827 581.475 250.407 581.364 249.922 581.364C249.388 581.364 248.926 581.496 248.536 581.761C248.149 582.023 247.852 582.364 247.643 582.784C247.435 583.205 247.331 583.655 247.331 584.136V584.909C247.331 585.568 247.445 586.127 247.672 586.585C247.903 587.04 248.223 587.386 248.632 587.625C249.041 587.86 249.517 587.977 250.058 587.977C250.411 587.977 250.729 587.928 251.013 587.83C251.301 587.727 251.549 587.576 251.757 587.375C251.965 587.17 252.126 586.917 252.24 586.614L253.536 586.977C253.399 587.417 253.17 587.803 252.848 588.136C252.526 588.466 252.128 588.723 251.655 588.909C251.181 589.091 250.649 589.182 250.058 589.182ZM264.007 580.273V581.409H259.484V580.273H264.007ZM260.803 578.182H262.143V586.5C262.143 586.879 262.198 587.163 262.308 587.352C262.422 587.538 262.566 587.663 262.74 587.727C262.918 587.788 263.106 587.818 263.303 587.818C263.45 587.818 263.571 587.811 263.666 587.795C263.761 587.777 263.837 587.761 263.893 587.75L264.166 588.955C264.075 588.989 263.948 589.023 263.786 589.057C263.623 589.095 263.416 589.114 263.166 589.114C262.787 589.114 262.416 589.032 262.053 588.869C261.693 588.706 261.393 588.458 261.155 588.125C260.92 587.792 260.803 587.371 260.803 586.864V578.182ZM267.553 583.75V589H266.212V577.364H267.553V581.636H267.666C267.871 581.186 268.178 580.828 268.587 580.562C269 580.294 269.549 580.159 270.234 580.159C270.829 580.159 271.35 580.278 271.797 580.517C272.244 580.752 272.59 581.114 272.837 581.602C273.087 582.087 273.212 582.705 273.212 583.455V589H271.871V583.545C271.871 582.852 271.691 582.316 271.331 581.938C270.975 581.555 270.481 581.364 269.848 581.364C269.409 581.364 269.015 581.456 268.666 581.642C268.321 581.828 268.049 582.098 267.848 582.455C267.651 582.811 267.553 583.242 267.553 583.75ZM278.233 589.205C277.68 589.205 277.178 589.1 276.727 588.892C276.277 588.68 275.919 588.375 275.653 587.977C275.388 587.576 275.256 587.091 275.256 586.523C275.256 586.023 275.354 585.617 275.551 585.307C275.748 584.992 276.011 584.746 276.341 584.568C276.67 584.39 277.034 584.258 277.432 584.17C277.833 584.08 278.237 584.008 278.642 583.955C279.172 583.886 279.602 583.835 279.932 583.801C280.265 583.763 280.508 583.701 280.659 583.614C280.814 583.527 280.892 583.375 280.892 583.159V583.114C280.892 582.553 280.739 582.117 280.432 581.807C280.129 581.496 279.669 581.341 279.051 581.341C278.411 581.341 277.909 581.481 277.545 581.761C277.182 582.042 276.926 582.341 276.778 582.659L275.506 582.205C275.733 581.674 276.036 581.261 276.415 580.966C276.797 580.667 277.214 580.458 277.665 580.341C278.119 580.22 278.566 580.159 279.006 580.159C279.286 580.159 279.608 580.193 279.972 580.261C280.339 580.326 280.693 580.46 281.034 580.665C281.379 580.869 281.665 581.178 281.892 581.591C282.119 582.004 282.233 582.557 282.233 583.25V589H280.892V587.818H280.824C280.733 588.008 280.581 588.21 280.369 588.426C280.157 588.642 279.875 588.826 279.523 588.977C279.17 589.129 278.741 589.205 278.233 589.205ZM278.438 588C278.968 588 279.415 587.896 279.778 587.688C280.146 587.479 280.422 587.21 280.608 586.881C280.797 586.551 280.892 586.205 280.892 585.841V584.614C280.835 584.682 280.71 584.744 280.517 584.801C280.328 584.854 280.108 584.902 279.858 584.943C279.612 584.981 279.371 585.015 279.136 585.045C278.905 585.072 278.718 585.095 278.574 585.114C278.225 585.159 277.9 585.233 277.597 585.335C277.297 585.434 277.055 585.583 276.869 585.784C276.688 585.981 276.597 586.25 276.597 586.591C276.597 587.057 276.769 587.409 277.114 587.648C277.462 587.883 277.903 588 278.438 588ZM288.476 580.273V581.409H283.953V580.273H288.476ZM285.271 578.182H286.612V586.5C286.612 586.879 286.667 587.163 286.777 587.352C286.891 587.538 287.035 587.663 287.209 587.727C287.387 587.788 287.574 587.818 287.771 587.818C287.919 587.818 288.04 587.811 288.135 587.795C288.23 587.777 288.305 587.761 288.362 587.75L288.635 588.955C288.544 588.989 288.417 589.023 288.254 589.057C288.091 589.095 287.885 589.114 287.635 589.114C287.256 589.114 286.885 589.032 286.521 588.869C286.161 588.706 285.862 588.458 285.624 588.125C285.389 587.792 285.271 587.371 285.271 586.864V578.182ZM301.175 582.227L299.97 582.568C299.894 582.367 299.783 582.172 299.635 581.983C299.491 581.79 299.294 581.631 299.044 581.506C298.794 581.381 298.474 581.318 298.084 581.318C297.55 581.318 297.105 581.441 296.749 581.688C296.396 581.93 296.22 582.239 296.22 582.614C296.22 582.947 296.341 583.21 296.584 583.403C296.826 583.597 297.205 583.758 297.72 583.886L299.016 584.205C299.796 584.394 300.377 584.684 300.76 585.074C301.143 585.46 301.334 585.958 301.334 586.568C301.334 587.068 301.19 587.515 300.902 587.909C300.618 588.303 300.22 588.614 299.709 588.841C299.197 589.068 298.603 589.182 297.925 589.182C297.035 589.182 296.298 588.989 295.714 588.602C295.131 588.216 294.762 587.652 294.607 586.909L295.879 586.591C296 587.061 296.23 587.413 296.567 587.648C296.908 587.883 297.353 588 297.902 588C298.527 588 299.023 587.867 299.391 587.602C299.762 587.333 299.947 587.011 299.947 586.636C299.947 586.333 299.841 586.08 299.629 585.875C299.417 585.667 299.091 585.511 298.652 585.409L297.197 585.068C296.398 584.879 295.811 584.585 295.436 584.188C295.065 583.786 294.879 583.284 294.879 582.682C294.879 582.189 295.018 581.754 295.294 581.375C295.574 580.996 295.955 580.699 296.436 580.483C296.921 580.267 297.47 580.159 298.084 580.159C298.947 580.159 299.625 580.348 300.118 580.727C300.614 581.106 300.966 581.606 301.175 582.227ZM307.148 580.273V581.409H302.625V580.273H307.148ZM303.943 578.182H305.284V586.5C305.284 586.879 305.339 587.163 305.449 587.352C305.563 587.538 305.706 587.663 305.881 587.727C306.059 587.788 306.246 587.818 306.443 587.818C306.591 587.818 306.712 587.811 306.807 587.795C306.902 587.777 306.977 587.761 307.034 587.75L307.307 588.955C307.216 588.989 307.089 589.023 306.926 589.057C306.763 589.095 306.557 589.114 306.307 589.114C305.928 589.114 305.557 589.032 305.193 588.869C304.833 588.706 304.534 588.458 304.295 588.125C304.061 587.792 303.943 587.371 303.943 586.864V578.182ZM311.733 589.205C311.18 589.205 310.678 589.1 310.227 588.892C309.777 588.68 309.419 588.375 309.153 587.977C308.888 587.576 308.756 587.091 308.756 586.523C308.756 586.023 308.854 585.617 309.051 585.307C309.248 584.992 309.511 584.746 309.841 584.568C310.17 584.39 310.534 584.258 310.932 584.17C311.333 584.08 311.737 584.008 312.142 583.955C312.672 583.886 313.102 583.835 313.432 583.801C313.765 583.763 314.008 583.701 314.159 583.614C314.314 583.527 314.392 583.375 314.392 583.159V583.114C314.392 582.553 314.239 582.117 313.932 581.807C313.629 581.496 313.169 581.341 312.551 581.341C311.911 581.341 311.409 581.481 311.045 581.761C310.682 582.042 310.426 582.341 310.278 582.659L309.006 582.205C309.233 581.674 309.536 581.261 309.915 580.966C310.297 580.667 310.714 580.458 311.165 580.341C311.619 580.22 312.066 580.159 312.506 580.159C312.786 580.159 313.108 580.193 313.472 580.261C313.839 580.326 314.193 580.46 314.534 580.665C314.879 580.869 315.165 581.178 315.392 581.591C315.619 582.004 315.733 582.557 315.733 583.25V589H314.392V587.818H314.324C314.233 588.008 314.081 588.21 313.869 588.426C313.657 588.642 313.375 588.826 313.023 588.977C312.67 589.129 312.241 589.205 311.733 589.205ZM311.938 588C312.468 588 312.915 587.896 313.278 587.688C313.646 587.479 313.922 587.21 314.108 586.881C314.297 586.551 314.392 586.205 314.392 585.841V584.614C314.335 584.682 314.21 584.744 314.017 584.801C313.828 584.854 313.608 584.902 313.358 584.943C313.112 584.981 312.871 585.015 312.636 585.045C312.405 585.072 312.218 585.095 312.074 585.114C311.725 585.159 311.4 585.233 311.097 585.335C310.797 585.434 310.555 585.583 310.369 585.784C310.188 585.981 310.097 586.25 310.097 586.591C310.097 587.057 310.269 587.409 310.614 587.648C310.962 587.883 311.403 588 311.938 588ZM318.18 589V580.273H319.476V581.591H319.567C319.726 581.159 320.014 580.809 320.43 580.54C320.847 580.271 321.317 580.136 321.839 580.136C321.938 580.136 322.061 580.138 322.209 580.142C322.357 580.146 322.468 580.152 322.544 580.159V581.523C322.499 581.511 322.394 581.494 322.232 581.472C322.072 581.445 321.904 581.432 321.726 581.432C321.302 581.432 320.923 581.521 320.589 581.699C320.26 581.873 319.999 582.116 319.805 582.426C319.616 582.733 319.521 583.083 319.521 583.477V589H318.18ZM328.476 580.273V581.409H323.953V580.273H328.476ZM325.271 578.182H326.612V586.5C326.612 586.879 326.667 587.163 326.777 587.352C326.891 587.538 327.035 587.663 327.209 587.727C327.387 587.788 327.574 587.818 327.771 587.818C327.919 587.818 328.04 587.811 328.135 587.795C328.23 587.777 328.305 587.761 328.362 587.75L328.635 588.955C328.544 588.989 328.417 589.023 328.254 589.057C328.091 589.095 327.885 589.114 327.635 589.114C327.256 589.114 326.885 589.032 326.521 588.869C326.161 588.706 325.862 588.458 325.624 588.125C325.389 587.792 325.271 587.371 325.271 586.864V578.182ZM336.518 582.227L335.314 582.568C335.238 582.367 335.126 582.172 334.979 581.983C334.835 581.79 334.638 581.631 334.388 581.506C334.138 581.381 333.818 581.318 333.428 581.318C332.893 581.318 332.448 581.441 332.092 581.688C331.74 581.93 331.564 582.239 331.564 582.614C331.564 582.947 331.685 583.21 331.928 583.403C332.17 583.597 332.549 583.758 333.064 583.886L334.359 584.205C335.14 584.394 335.721 584.684 336.104 585.074C336.486 585.46 336.678 585.958 336.678 586.568C336.678 587.068 336.534 587.515 336.246 587.909C335.962 588.303 335.564 588.614 335.053 588.841C334.541 589.068 333.946 589.182 333.268 589.182C332.378 589.182 331.642 588.989 331.058 588.602C330.475 588.216 330.106 587.652 329.95 586.909L331.223 586.591C331.344 587.061 331.573 587.413 331.911 587.648C332.251 587.883 332.696 588 333.246 588C333.871 588 334.367 587.867 334.734 587.602C335.106 587.333 335.291 587.011 335.291 586.636C335.291 586.333 335.185 586.08 334.973 585.875C334.761 585.667 334.435 585.511 333.996 585.409L332.541 585.068C331.742 584.879 331.155 584.585 330.78 584.188C330.409 583.786 330.223 583.284 330.223 582.682C330.223 582.189 330.361 581.754 330.638 581.375C330.918 580.996 331.299 580.699 331.78 580.483C332.265 580.267 332.814 580.159 333.428 580.159C334.291 580.159 334.969 580.348 335.462 580.727C335.958 581.106 336.31 581.606 336.518 582.227ZM345.173 589L342.514 580.273H343.923L345.81 586.955H345.901L347.764 580.273H349.196L351.037 586.932H351.128L353.014 580.273H354.423L351.764 589H350.446L348.537 582.295H348.401L346.491 589H345.173ZM356.196 589V580.273H357.537V589H356.196ZM356.878 578.818C356.616 578.818 356.391 578.729 356.202 578.551C356.016 578.373 355.923 578.159 355.923 577.909C355.923 577.659 356.016 577.445 356.202 577.267C356.391 577.089 356.616 577 356.878 577C357.139 577 357.363 577.089 357.548 577.267C357.738 577.445 357.832 577.659 357.832 577.909C357.832 578.159 357.738 578.373 357.548 578.551C357.363 578.729 357.139 578.818 356.878 578.818ZM363.788 580.273V581.409H359.266V580.273H363.788ZM360.584 578.182H361.925V586.5C361.925 586.879 361.98 587.163 362.089 587.352C362.203 587.538 362.347 587.663 362.521 587.727C362.699 587.788 362.887 587.818 363.084 587.818C363.232 587.818 363.353 587.811 363.447 587.795C363.542 587.777 363.618 587.761 363.675 587.75L363.947 588.955C363.857 588.989 363.73 589.023 363.567 589.057C363.404 589.095 363.197 589.114 362.947 589.114C362.569 589.114 362.197 589.032 361.834 588.869C361.474 588.706 361.175 588.458 360.936 588.125C360.701 587.792 360.584 587.371 360.584 586.864V578.182ZM367.334 583.75V589H365.993V577.364H367.334V581.636H367.447C367.652 581.186 367.959 580.828 368.368 580.562C368.781 580.294 369.33 580.159 370.016 580.159C370.61 580.159 371.131 580.278 371.578 580.517C372.025 580.752 372.372 581.114 372.618 581.602C372.868 582.087 372.993 582.705 372.993 583.455V589H371.652V583.545C371.652 582.852 371.472 582.316 371.112 581.938C370.756 581.555 370.262 581.364 369.629 581.364C369.19 581.364 368.796 581.456 368.447 581.642C368.103 581.828 367.83 582.098 367.629 582.455C367.432 582.811 367.334 583.242 367.334 583.75ZM382.514 589.205C381.961 589.205 381.459 589.1 381.009 588.892C380.558 588.68 380.2 588.375 379.935 587.977C379.67 587.576 379.537 587.091 379.537 586.523C379.537 586.023 379.635 585.617 379.832 585.307C380.029 584.992 380.293 584.746 380.622 584.568C380.952 584.39 381.315 584.258 381.713 584.17C382.115 584.08 382.518 584.008 382.923 583.955C383.454 583.886 383.884 583.835 384.213 583.801C384.546 583.763 384.789 583.701 384.94 583.614C385.096 583.527 385.173 583.375 385.173 583.159V583.114C385.173 582.553 385.02 582.117 384.713 581.807C384.41 581.496 383.95 581.341 383.332 581.341C382.692 581.341 382.19 581.481 381.827 581.761C381.463 582.042 381.207 582.341 381.06 582.659L379.787 582.205C380.014 581.674 380.317 581.261 380.696 580.966C381.079 580.667 381.495 580.458 381.946 580.341C382.401 580.22 382.848 580.159 383.287 580.159C383.567 580.159 383.889 580.193 384.253 580.261C384.62 580.326 384.974 580.46 385.315 580.665C385.66 580.869 385.946 581.178 386.173 581.591C386.401 582.004 386.514 582.557 386.514 583.25V589H385.173V587.818H385.105C385.014 588.008 384.863 588.21 384.651 588.426C384.438 588.642 384.156 588.826 383.804 588.977C383.452 589.129 383.022 589.205 382.514 589.205ZM382.719 588C383.249 588 383.696 587.896 384.06 587.688C384.427 587.479 384.704 587.21 384.889 586.881C385.079 586.551 385.173 586.205 385.173 585.841V584.614C385.116 584.682 384.991 584.744 384.798 584.801C384.609 584.854 384.389 584.902 384.139 584.943C383.893 584.981 383.652 585.015 383.418 585.045C383.187 585.072 382.999 585.095 382.855 585.114C382.507 585.159 382.181 585.233 381.878 585.335C381.579 585.434 381.336 585.583 381.151 585.784C380.969 585.981 380.878 586.25 380.878 586.591C380.878 587.057 381.05 587.409 381.395 587.648C381.743 587.883 382.185 588 382.719 588Z" fill="#A3A3A3"/>
<rect x="393" y="572" width="88" height="23" rx="6" fill="#525252"/>
<path d="M399.568 583.75V589H398.227V577.364H399.568V581.636H399.682C399.886 581.186 400.193 580.828 400.602 580.562C401.015 580.294 401.564 580.159 402.25 580.159C402.845 580.159 403.366 580.278 403.812 580.517C404.259 580.752 404.606 581.114 404.852 581.602C405.102 582.087 405.227 582.705 405.227 583.455V589H403.886V583.545C403.886 582.852 403.706 582.316 403.347 581.938C402.991 581.555 402.496 581.364 401.864 581.364C401.424 581.364 401.03 581.456 400.682 581.642C400.337 581.828 400.064 582.098 399.864 582.455C399.667 582.811 399.568 583.242 399.568 583.75ZM413.18 585.432V580.273H414.521V589H413.18V587.523H413.089C412.885 587.966 412.567 588.343 412.135 588.653C411.703 588.96 411.158 589.114 410.499 589.114C409.953 589.114 409.468 588.994 409.044 588.756C408.62 588.513 408.286 588.15 408.044 587.665C407.802 587.176 407.68 586.561 407.68 585.818V580.273H409.021V585.727C409.021 586.364 409.199 586.871 409.555 587.25C409.915 587.629 410.374 587.818 410.93 587.818C411.264 587.818 411.603 587.733 411.947 587.562C412.296 587.392 412.588 587.131 412.822 586.778C413.061 586.426 413.18 585.977 413.18 585.432ZM416.977 589V580.273H418.273V581.636H418.386C418.568 581.17 418.862 580.809 419.267 580.551C419.672 580.29 420.159 580.159 420.727 580.159C421.303 580.159 421.782 580.29 422.165 580.551C422.551 580.809 422.852 581.17 423.068 581.636H423.159C423.383 581.186 423.718 580.828 424.165 580.562C424.612 580.294 425.148 580.159 425.773 580.159C426.553 580.159 427.191 580.403 427.688 580.892C428.184 581.377 428.432 582.133 428.432 583.159V589H427.091V583.159C427.091 582.515 426.915 582.055 426.562 581.778C426.21 581.502 425.795 581.364 425.318 581.364C424.705 581.364 424.229 581.549 423.892 581.92C423.555 582.288 423.386 582.754 423.386 583.318V589H422.023V583.023C422.023 582.527 421.862 582.127 421.54 581.824C421.218 581.517 420.803 581.364 420.295 581.364C419.947 581.364 419.621 581.456 419.318 581.642C419.019 581.828 418.777 582.085 418.591 582.415C418.409 582.741 418.318 583.117 418.318 583.545V589H416.977ZM433.452 589.205C432.899 589.205 432.397 589.1 431.946 588.892C431.495 588.68 431.137 588.375 430.872 587.977C430.607 587.576 430.474 587.091 430.474 586.523C430.474 586.023 430.573 585.617 430.77 585.307C430.967 584.992 431.23 584.746 431.56 584.568C431.889 584.39 432.253 584.258 432.651 584.17C433.052 584.08 433.455 584.008 433.861 583.955C434.391 583.886 434.821 583.835 435.151 583.801C435.484 583.763 435.726 583.701 435.878 583.614C436.033 583.527 436.111 583.375 436.111 583.159V583.114C436.111 582.553 435.957 582.117 435.651 581.807C435.348 581.496 434.887 581.341 434.27 581.341C433.63 581.341 433.128 581.481 432.764 581.761C432.401 582.042 432.145 582.341 431.997 582.659L430.724 582.205C430.952 581.674 431.255 581.261 431.634 580.966C432.016 580.667 432.433 580.458 432.884 580.341C433.338 580.22 433.785 580.159 434.224 580.159C434.505 580.159 434.827 580.193 435.19 580.261C435.558 580.326 435.912 580.46 436.253 580.665C436.598 580.869 436.884 581.178 437.111 581.591C437.338 582.004 437.452 582.557 437.452 583.25V589H436.111V587.818H436.043C435.952 588.008 435.8 588.21 435.588 588.426C435.376 588.642 435.094 588.826 434.741 588.977C434.389 589.129 433.959 589.205 433.452 589.205ZM433.656 588C434.187 588 434.634 587.896 434.997 587.688C435.365 587.479 435.641 587.21 435.827 586.881C436.016 586.551 436.111 586.205 436.111 585.841V584.614C436.054 584.682 435.929 584.744 435.736 584.801C435.546 584.854 435.327 584.902 435.077 584.943C434.83 584.981 434.59 585.015 434.355 585.045C434.124 585.072 433.937 585.095 433.793 585.114C433.444 585.159 433.118 585.233 432.815 585.335C432.516 585.434 432.274 585.583 432.088 585.784C431.906 585.981 431.815 586.25 431.815 586.591C431.815 587.057 431.988 587.409 432.332 587.648C432.681 587.883 433.122 588 433.656 588ZM441.24 583.75V589H439.899V580.273H441.195V581.636H441.308C441.513 581.193 441.823 580.837 442.24 580.568C442.657 580.295 443.195 580.159 443.854 580.159C444.445 580.159 444.962 580.28 445.405 580.523C445.848 580.761 446.193 581.125 446.439 581.614C446.685 582.098 446.808 582.712 446.808 583.455V589H445.467V583.545C445.467 582.86 445.289 582.326 444.933 581.943C444.577 581.557 444.089 581.364 443.467 581.364C443.039 581.364 442.657 581.456 442.32 581.642C441.986 581.828 441.723 582.098 441.53 582.455C441.337 582.811 441.24 583.242 441.24 583.75ZM450.236 589.091C449.955 589.091 449.715 588.991 449.514 588.79C449.313 588.589 449.213 588.348 449.213 588.068C449.213 587.788 449.313 587.547 449.514 587.347C449.715 587.146 449.955 587.045 450.236 587.045C450.516 587.045 450.757 587.146 450.957 587.347C451.158 587.547 451.259 587.788 451.259 588.068C451.259 588.254 451.211 588.424 451.116 588.58C451.026 588.735 450.902 588.86 450.747 588.955C450.596 589.045 450.425 589.091 450.236 589.091ZM453.665 589V580.273H454.96V581.636H455.074C455.256 581.17 455.549 580.809 455.955 580.551C456.36 580.29 456.847 580.159 457.415 580.159C457.991 580.159 458.47 580.29 458.852 580.551C459.239 580.809 459.54 581.17 459.756 581.636H459.847C460.07 581.186 460.405 580.828 460.852 580.562C461.299 580.294 461.835 580.159 462.46 580.159C463.241 580.159 463.879 580.403 464.375 580.892C464.871 581.377 465.119 582.133 465.119 583.159V589H463.778V583.159C463.778 582.515 463.602 582.055 463.25 581.778C462.898 581.502 462.483 581.364 462.006 581.364C461.392 581.364 460.917 581.549 460.58 581.92C460.242 582.288 460.074 582.754 460.074 583.318V589H458.71V583.023C458.71 582.527 458.549 582.127 458.227 581.824C457.905 581.517 457.491 581.364 456.983 581.364C456.634 581.364 456.309 581.456 456.006 581.642C455.706 581.828 455.464 582.085 455.278 582.415C455.097 582.741 455.006 583.117 455.006 583.545V589H453.665ZM470.866 589.182C470.139 589.182 469.497 588.998 468.94 588.631C468.384 588.259 467.948 587.737 467.634 587.062C467.319 586.384 467.162 585.583 467.162 584.659C467.162 583.742 467.319 582.947 467.634 582.273C467.948 581.598 468.385 581.078 468.946 580.71C469.507 580.343 470.154 580.159 470.889 580.159C471.457 580.159 471.906 580.254 472.236 580.443C472.569 580.629 472.823 580.841 472.997 581.08C473.175 581.314 473.313 581.508 473.412 581.659H473.526V577.364H474.866V589H473.571V587.659H473.412C473.313 587.818 473.173 588.019 472.991 588.261C472.81 588.5 472.55 588.714 472.213 588.903C471.876 589.089 471.427 589.182 470.866 589.182ZM471.048 587.977C471.586 587.977 472.041 587.837 472.412 587.557C472.783 587.273 473.065 586.881 473.259 586.381C473.452 585.877 473.548 585.295 473.548 584.636C473.548 583.985 473.454 583.415 473.264 582.926C473.075 582.434 472.795 582.051 472.423 581.778C472.052 581.502 471.594 581.364 471.048 581.364C470.48 581.364 470.007 581.509 469.628 581.801C469.253 582.089 468.971 582.481 468.781 582.977C468.596 583.47 468.503 584.023 468.503 584.636C468.503 585.258 468.598 585.822 468.787 586.33C468.98 586.833 469.264 587.235 469.639 587.534C470.018 587.83 470.488 587.977 471.048 587.977Z" fill="#F5F5F5"/>
</g>
<defs>
<clipPath id="clip0_465_43">
<rect width="1200" height="630" fill="white"/>
</clipPath>
</defs>
</svg>
